<mxfile host="app.diagrams.net" modified="2023-11-08T14:05:45.502Z" agent="5.0 (Macintosh; Intel Mac OS X 10_15_7) AppleWebKit/537.36 (KHTML, like Gecko) Chrome/113.0.0.0 Safari/537.36" etag="CuZmhpvs1SU3k7tTo9tL" version="20.8.23" type="github">
  <diagram id="6a731a19-8d31-9384-78a2-239565b7b9f0" name="Page-1">
    <mxGraphModel dx="1266" dy="661" grid="1" gridSize="10" guides="1" tooltips="1" connect="1" arrows="1" fold="1" page="1" pageScale="1" pageWidth="1169" pageHeight="827" background="none" math="0" shadow="0">
      <root>
        <mxCell id="0" />
        <mxCell id="1" parent="0" />
        <mxCell id="U_5UaRCAsPwG7vACrCzl-1781" value="" style="edgeStyle=orthogonalEdgeStyle;rounded=0;orthogonalLoop=1;jettySize=auto;html=1;" edge="1" parent="1" source="U_5UaRCAsPwG7vACrCzl-1779" target="U_5UaRCAsPwG7vACrCzl-1780">
          <mxGeometry relative="1" as="geometry" />
        </mxCell>
        <mxCell id="U_5UaRCAsPwG7vACrCzl-1779" value="夏" style="rounded=1;whiteSpace=wrap;html=1;shadow=0;labelBackgroundColor=none;strokeColor=none;strokeWidth=3;fillColor=#2F5B7C;fontFamily=Helvetica;fontSize=16;fontColor=#FFFFFF;align=center;fontStyle=1;spacing=5;arcSize=7;perimeterSpacing=2;" vertex="1" parent="1">
          <mxGeometry x="160" y="120" width="100" height="40" as="geometry" />
        </mxCell>
        <mxCell id="U_5UaRCAsPwG7vACrCzl-1786" value="" style="edgeStyle=orthogonalEdgeStyle;rounded=0;orthogonalLoop=1;jettySize=auto;html=1;" edge="1" parent="1" source="U_5UaRCAsPwG7vACrCzl-1780" target="U_5UaRCAsPwG7vACrCzl-1785">
          <mxGeometry relative="1" as="geometry" />
        </mxCell>
        <mxCell id="U_5UaRCAsPwG7vACrCzl-1780" value="商" style="rounded=1;whiteSpace=wrap;html=1;shadow=0;labelBackgroundColor=none;strokeColor=none;strokeWidth=3;fillColor=#2F5B7C;fontFamily=Helvetica;fontSize=16;fontColor=#FFFFFF;align=center;fontStyle=1;spacing=5;arcSize=7;perimeterSpacing=2;" vertex="1" parent="1">
          <mxGeometry x="340" y="120" width="100" height="40" as="geometry" />
        </mxCell>
        <mxCell id="U_5UaRCAsPwG7vACrCzl-1788" value="" style="edgeStyle=orthogonalEdgeStyle;rounded=0;orthogonalLoop=1;jettySize=auto;html=1;" edge="1" parent="1" source="U_5UaRCAsPwG7vACrCzl-1785" target="U_5UaRCAsPwG7vACrCzl-1787">
          <mxGeometry relative="1" as="geometry" />
        </mxCell>
        <mxCell id="U_5UaRCAsPwG7vACrCzl-1785" value="周" style="rounded=1;whiteSpace=wrap;html=1;shadow=0;labelBackgroundColor=none;strokeColor=none;strokeWidth=3;fillColor=#2F5B7C;fontFamily=Helvetica;fontSize=16;fontColor=#FFFFFF;align=center;fontStyle=1;spacing=5;arcSize=7;perimeterSpacing=2;" vertex="1" parent="1">
          <mxGeometry x="520" y="120" width="100" height="40" as="geometry" />
        </mxCell>
        <mxCell id="U_5UaRCAsPwG7vACrCzl-1790" value="" style="edgeStyle=orthogonalEdgeStyle;rounded=0;orthogonalLoop=1;jettySize=auto;html=1;" edge="1" parent="1" source="U_5UaRCAsPwG7vACrCzl-1787" target="U_5UaRCAsPwG7vACrCzl-1789">
          <mxGeometry relative="1" as="geometry" />
        </mxCell>
        <mxCell id="U_5UaRCAsPwG7vACrCzl-1787" value="春秋" style="rounded=1;whiteSpace=wrap;html=1;shadow=0;labelBackgroundColor=none;strokeColor=none;strokeWidth=3;fillColor=#2F5B7C;fontFamily=Helvetica;fontSize=16;fontColor=#FFFFFF;align=center;fontStyle=1;spacing=5;arcSize=7;perimeterSpacing=2;" vertex="1" parent="1">
          <mxGeometry x="700" y="120" width="100" height="40" as="geometry" />
        </mxCell>
        <mxCell id="U_5UaRCAsPwG7vACrCzl-1792" value="" style="edgeStyle=orthogonalEdgeStyle;rounded=0;orthogonalLoop=1;jettySize=auto;html=1;" edge="1" parent="1" source="U_5UaRCAsPwG7vACrCzl-1789" target="U_5UaRCAsPwG7vACrCzl-1791">
          <mxGeometry relative="1" as="geometry" />
        </mxCell>
        <mxCell id="U_5UaRCAsPwG7vACrCzl-1789" value="战国" style="rounded=1;whiteSpace=wrap;html=1;shadow=0;labelBackgroundColor=none;strokeColor=none;strokeWidth=3;fillColor=#2F5B7C;fontFamily=Helvetica;fontSize=16;fontColor=#FFFFFF;align=center;fontStyle=1;spacing=5;arcSize=7;perimeterSpacing=2;" vertex="1" parent="1">
          <mxGeometry x="880" y="120" width="100" height="40" as="geometry" />
        </mxCell>
        <mxCell id="U_5UaRCAsPwG7vACrCzl-1796" value="" style="edgeStyle=orthogonalEdgeStyle;rounded=0;orthogonalLoop=1;jettySize=auto;html=1;" edge="1" parent="1" source="U_5UaRCAsPwG7vACrCzl-1791" target="U_5UaRCAsPwG7vACrCzl-1795">
          <mxGeometry relative="1" as="geometry" />
        </mxCell>
        <mxCell id="U_5UaRCAsPwG7vACrCzl-1791" value="秦" style="rounded=1;whiteSpace=wrap;html=1;shadow=0;labelBackgroundColor=none;strokeColor=none;strokeWidth=3;fillColor=#2F5B7C;fontFamily=Helvetica;fontSize=16;fontColor=#FFFFFF;align=center;fontStyle=1;spacing=5;arcSize=7;perimeterSpacing=2;" vertex="1" parent="1">
          <mxGeometry x="1060" y="120" width="100" height="40" as="geometry" />
        </mxCell>
        <mxCell id="U_5UaRCAsPwG7vACrCzl-1795" value="汉" style="rounded=1;whiteSpace=wrap;html=1;shadow=0;labelBackgroundColor=none;strokeColor=none;strokeWidth=3;fillColor=#2F5B7C;fontFamily=Helvetica;fontSize=16;fontColor=#FFFFFF;align=center;fontStyle=1;spacing=5;arcSize=7;perimeterSpacing=2;" vertex="1" parent="1">
          <mxGeometry x="1240" y="120" width="100" height="40" as="geometry" />
        </mxCell>
      </root>
    </mxGraphModel>
  </diagram>
</mxfile>
